<?xml version="1.0" encoding="utf-8"?>
<!-- Generator: Adobe Illustrator 22.1.0, SVG Export Plug-In . SVG Version: 6.00 Build 0)  -->
<svg version="1.1" id="Layer_1" xmlns="http://www.w3.org/2000/svg" xmlns:xlink="http://www.w3.org/1999/xlink" x="0px" y="0px"
	 viewBox="0 0 841.9 324.3" style="enable-background:new 0 0 841.9 324.3;" xml:space="preserve">
<style type="text/css">
	.st0{fill:#00589F;}
	.st1{fill:#00589F;stroke:#FFFFFF;stroke-width:0.25;stroke-miterlimit:10;}
	.st2{fill:#C02527;}
	.st3{fill:#FFFFFF;}
</style>
<rect x="230.3" y="200.4" class="st0" width="592.7" height="95.6"/>
<g>
	<circle class="st1" cx="129.9" cy="29" r="5.1"/>
	<circle class="st1" cx="139" cy="30.1" r="6.2"/>
	<circle class="st1" cx="150.9" cy="31.1" r="6.2"/>
	<circle class="st1" cx="162" cy="33.4" r="6.7"/>
	<circle class="st1" cx="174.1" cy="36.9" r="7.4"/>
	<circle class="st1" cx="186.5" cy="42.1" r="7.4"/>
	<circle class="st1" cx="178.7" cy="51.5" r="9"/>
	<circle class="st1" cx="171.1" cy="62.2" r="11"/>
	<circle class="st1" cx="154.9" cy="74.4" r="12.7"/>
	<circle class="st1" cx="134.3" cy="84.4" r="12.7"/>
	<circle class="st1" cx="114.1" cy="95" r="13.6"/>
	<circle class="st1" cx="92" cy="107.8" r="16.1"/>
	<circle class="st1" cx="71" cy="126" r="17.2"/>
	<circle class="st1" cx="49.8" cy="142.5" r="17.2"/>
	<circle class="st1" cx="37.4" cy="165.2" r="19.3"/>
	<circle class="st1" cx="38.7" cy="191.3" r="20.7"/>
	<circle class="st1" cx="197.7" cy="46" r="7.4"/>
	<circle class="st1" cx="63.5" cy="215.2" r="24"/>
	<circle class="st1" cx="205.3" cy="54.6" r="7.7"/>
	<circle class="st1" cx="98.2" cy="236.8" r="25.8"/>
	<circle class="st1" cx="203" cy="70.5" r="10.6"/>
	<circle class="st1" cx="188.2" cy="85.5" r="13.2"/>
	<circle class="st1" cx="170.8" cy="102.5" r="15.6"/>
	<circle class="st1" cx="149.2" cy="117.9" r="16.3"/>
	<circle class="st1" cx="129" cy="133.5" r="16.3"/>
	<circle class="st1" cx="114.1" cy="155.2" r="17.9"/>
	<circle class="st1" cx="122.4" cy="178.2" r="20.2"/>
	<circle class="st1" cx="139.6" cy="255.9" r="26.8"/>
	<circle class="st1" cx="150" cy="193.4" r="22.7"/>
	<circle class="st1" cx="184.1" cy="200.7" r="23.8"/>
	<circle class="st1" cx="221.5" cy="201.2" r="23.2"/>
	<circle class="st1" cx="189.3" cy="266.9" r="28.6"/>
</g>
<g>
	<path class="st0" d="M333.6,81.4c0,8.8-2.7,15.9-8.1,21.3c-4.5,4.6-11,7.9-19.2,9.9c-6.6,1.6-14.3,2.4-23,2.4h-12.8v28.5
		c0,8.7,0.8,14.4,2.3,17.1c2.2,3.8,7.3,6.5,15.5,7.9h-51c7.3-1.8,11.9-4.5,13.8-8.3c1.4-2.7,2.1-8.1,2.1-16.3V69.6
		c0-8.1-0.7-13.4-2-15.9c-2-3.7-6.6-6.3-13.9-8h36.4c10.8,0,19.6,0.6,26.2,1.7c10.2,1.7,18,4.9,23.4,9.5c6.8,5.8,10.2,13.8,10.2,24
		L333.6,81.4L333.6,81.4z M314.3,80v-1c0-9.7-3.6-16.8-10.9-21.3c-5.8-3.6-13.6-5.4-23.5-5.4h-1.4c-3,0-5.1,0.9-6.4,2.7
		c-1,1.3-1.4,3.3-1.4,6v4.3V109h12.8c9.6,0,17.1-2.3,22.4-7C311.4,96.9,314.3,89.6,314.3,80z"/>
	<path class="st0" d="M447,138.8l-7.9,29.7h-99c7.4-1.5,12.1-4.1,14.1-7.7c1.5-2.6,2.2-7.7,2.2-15.4V70.9c0-8.4-0.7-13.9-2-16.5
		c-2-3.9-6.8-6.7-14.3-8.5H437l1.2,25.7c-3.7-7.9-7.3-13.2-11-15.8S417.5,52,409,52h-30.5c-1.5,0-2.6,0.3-3.3,0.8
		c-0.7,0.5-1,1.4-1,2.5v46.2h27.5c8.3,0,13.9-1.1,16.9-3.3c3-2.2,5.8-7.1,8.5-14.7v42c-2.6-7.5-5.5-12.3-8.6-14.5s-8.6-3.3-16.4-3.3
		h-27.9v43.9c0,4.7,1,7.7,3,9.1c1.6,1.2,4.8,1.7,9.6,1.7h15.9c11.3,0,19.8-1.5,25.3-4.5C433.6,155.2,439.9,148.8,447,138.8z"/>
	<path class="st2" d="M581.2,168.5H536c3-0.3,5.5-1,7.4-1.9c3.1-1.5,4.6-3.8,4.6-6.7v-0.6c-0.2-1.8-0.6-3.8-1.1-6.1
		c-0.1-0.3-0.6-2.2-1.7-5.8l-8.6-18.5h-48.7l-5.4,12.2c-1.2,2.5-2.2,5.2-3.3,8.2c-1.3,3.9-2,6.8-2,8.6l-0.4,0.6c0,3,1.6,5.4,4.7,7.2
		c2,1.2,4.8,2.1,8.3,2.8h-35.5c5.4-2,9.9-6.1,13.5-12c1.6-2.6,4.1-8.2,7.6-16.7l41.9-100.5l47.6,111.9c2.9,6.2,4.9,9.9,5.8,11
		C573,165.4,576.6,167.5,581.2,168.5z M534.5,122.3l-22-52.8l-22.1,52.8H534.5z"/>
	<path class="st0" d="M707.6,168.5h-31.3l-44.1-56.7h-11.6v34.5c0,7.2,0.9,12.1,2.7,14.8c2,3.1,6.5,5.5,13.3,7.4h-49.2
		c6.7-1.6,11-4.1,13.1-7.4c1.7-2.8,2.5-7.8,2.5-15.2V66.6c0-6.7-1-11.4-3.1-14.1c-2.1-2.7-6.2-5-12.4-6.8h40.4
		c10.4,0,18.7,0.5,24.7,1.4c9.5,1.5,16.8,4.4,21.9,8.6c6.3,5.3,9.5,12.7,9.5,22.4V79c0,8.9-3.1,15.9-9.4,20.9
		c-5.2,4.2-13.1,7.5-23.8,9.8l30.1,37.7c3.1,3.8,5.5,6.7,7.3,8.6c2.9,3.2,5.8,5.7,8.6,7.6C700,166,703.7,167.6,707.6,168.5z
		 M665.4,77.6V77c0-8.9-3.4-15.5-10.1-19.9c-5.6-3.7-13-5.5-22.1-5.5h-2.6c-3.6,0-6,0.5-7.3,1.4c-1.9,1.4-2.8,4.3-2.8,8.6v43.9h5
		c7.2,0,13.4-0.6,18.3-1.9c6.5-1.7,11.5-4.4,15.2-8.3C663.3,90.9,665.4,85,665.4,77.6z"/>
	<path class="st0" d="M821,137.7l-8.6,30.8h-97.6c7.6-1.8,12.4-4.5,14.4-8.3c1.4-2.6,2.1-8.1,2.1-16.3V69c0-7.8-0.7-13-2.1-15.6
		c-1.9-3.5-6.4-6.2-13.4-8.1H766c-7.5,1.5-12.4,4.3-14.7,8.2c-1.7,2.9-2.6,8-2.6,15.5v3v76.5c0,5.8,2,9.7,6.1,11.9
		c2.8,1.5,7.1,2.3,13,2.3h8.8c11,0,19.5-1.7,25.5-5.2C808.1,153.9,814.4,147.3,821,137.7z"/>
</g>
<g>
	<path class="st3" d="M265.8,220c0,2.1-0.7,3.9-2,5.2c-1.1,1.1-2.6,1.9-4.6,2.4c-1.6,0.4-3.4,0.6-5.6,0.6h-3.1v6.9
		c0,2.1,0.2,3.5,0.6,4.1c0.5,0.9,1.8,1.6,3.7,1.9h-12.3c1.8-0.4,2.9-1.1,3.3-2c0.3-0.7,0.5-2,0.5-4v-18c0-2-0.2-3.2-0.5-3.8
		c-0.5-0.9-1.6-1.5-3.4-1.9h8.8c2.6,0,4.7,0.1,6.3,0.4c2.5,0.4,4.4,1.2,5.7,2.3C265,215.5,265.8,217.5,265.8,220L265.8,220z
		 M261.1,219.7v-0.3c0-2.4-0.9-4.1-2.6-5.2c-1.4-0.9-3.3-1.3-5.7-1.3h-0.3c-0.7,0-1.2,0.2-1.6,0.7c-0.2,0.3-0.3,0.8-0.3,1.4v1v10.6
		h3.1c2.3,0,4.1-0.6,5.4-1.7C260.4,223.8,261.1,222,261.1,219.7z"/>
	<path class="st3" d="M282.5,241.1h-13.1c1.9-0.3,3.2-0.9,3.7-1.8c0.4-0.7,0.6-1.9,0.6-3.8v-18c0-2.2-0.2-3.6-0.6-4.2
		c-0.5-0.9-1.8-1.5-3.8-1.8h13.1c-2,0.4-3.3,1-3.8,1.9c-0.4,0.7-0.7,2.1-0.7,4.2v17.3l-0.1,0.8c0,1.9,0.2,3.2,0.7,3.8
		C279.2,240.3,280.5,240.9,282.5,241.1z"/>
	<path class="st3" d="M315.2,241.1h-7.6L297,227.4h-2.8v8.3c0,1.7,0.2,2.9,0.7,3.6c0.5,0.7,1.6,1.3,3.2,1.8h-11.9
		c1.6-0.4,2.7-1,3.2-1.8c0.4-0.7,0.6-1.9,0.6-3.7v-19.2c0-1.6-0.3-2.7-0.8-3.4s-1.5-1.2-3-1.6h9.8c2.5,0,4.5,0.1,6,0.3
		c2.3,0.4,4.1,1.1,5.3,2.1c1.5,1.3,2.3,3.1,2.3,5.4v0.2c0,2.2-0.8,3.8-2.3,5.1c-1.3,1-3.2,1.8-5.8,2.4l7.3,9.1
		c0.7,0.9,1.3,1.6,1.8,2.1c0.7,0.8,1.4,1.4,2.1,1.8C313.4,240.5,314.3,240.9,315.2,241.1z M305,219.1V219c0-2.2-0.8-3.8-2.4-4.8
		c-1.4-0.9-3.1-1.3-5.3-1.3h-0.6c-0.9,0-1.5,0.1-1.8,0.3c-0.4,0.3-0.7,1-0.7,2.1v10.6h1.2c1.8,0,3.2-0.2,4.4-0.5
		c1.6-0.4,2.8-1.1,3.7-2C304.5,222.3,305,220.9,305,219.1z"/>
	<path class="st3" d="M349.3,241.1h-10.9c0.7-0.1,1.3-0.2,1.8-0.5c0.7-0.4,1.1-0.9,1.1-1.6v-0.1c0-0.4-0.1-0.9-0.3-1.5
		c0-0.1-0.2-0.5-0.4-1.4l-2.1-4.5h-11.8l-1.3,3c-0.3,0.6-0.5,1.3-0.8,2c-0.3,0.9-0.5,1.6-0.5,2.1l-0.1,0.1c0,0.7,0.4,1.3,1.1,1.7
		c0.5,0.3,1.2,0.5,2,0.7h-8.6c1.3-0.5,2.4-1.5,3.3-2.9c0.4-0.6,1-2,1.8-4l10.1-24.3l11.5,27.1c0.7,1.5,1.2,2.4,1.4,2.7
		C347.3,240.4,348.2,240.9,349.3,241.1z M338,229.9l-5.3-12.8l-5.3,12.8H338z"/>
	<path class="st3" d="M378.2,233.9l-1.9,7.2h-23.9c1.8-0.4,2.9-1,3.4-1.9c0.4-0.6,0.5-1.9,0.5-3.7v-18c0-2-0.2-3.4-0.5-4
		c-0.5-0.9-1.6-1.6-3.5-2h23.4l0.3,6.2c-0.9-1.9-1.8-3.2-2.6-3.8c-0.9-0.6-2.3-0.9-4.4-0.9h-7.4c-0.4,0-0.6,0.1-0.8,0.2
		c-0.2,0.1-0.2,0.3-0.2,0.6V225h6.6c2,0,3.4-0.3,4.1-0.8s1.4-1.7,2.1-3.6v10.2c-0.6-1.8-1.3-3-2.1-3.5c-0.7-0.5-2.1-0.8-4-0.8h-6.7
		v10.6c0,1.1,0.2,1.9,0.7,2.2c0.4,0.3,1.2,0.4,2.3,0.4h3.9c2.7,0,4.8-0.4,6.1-1.1C374.9,237.9,376.4,236.3,378.2,233.9z"/>
	<path class="st3" d="M411.9,211.5c-1.7,0.4-2.9,1-3.5,1.9c-0.5,0.7-0.7,1.7-0.7,3.1v2.3V231c0,3.6-1,6.3-3,8.1s-4.8,2.7-8.4,2.7
		c-4.1,0-7.1-1.2-8.8-3.6c-1.5-2-2.2-5.2-2.2-9.5v-11c0-2.2-0.1-3.6-0.4-4.1c-0.5-1-1.7-1.7-3.6-2.2h12.3c-1.8,0.4-3,1-3.5,1.9
		c-0.4,0.7-0.6,1.9-0.6,3.7v0.7v10.9c0,2.4,0.1,4.1,0.4,5.4c0.4,1.8,1.1,3.2,2.1,4.2c1.2,1.1,3,1.7,5.3,1.7h0.2c2.9,0,5-0.8,6.5-2.3
		s2.2-3.7,2.2-6.6v-13.4c0-2.1-0.2-3.5-0.5-4.2c-0.5-1-1.7-1.6-3.6-2h9.8V211.5z"/>
	<path class="st3" d="M434.6,233.7c0,2.5-0.9,4.6-2.8,6c-1.7,1.4-3.9,2-6.5,2c-0.7,0-1.4-0.1-2-0.2c-0.6-0.1-1.2-0.3-1.8-0.5
		l-2.2-0.8c-0.1,0-0.2-0.1-0.3-0.2c-0.1-0.1-0.3-0.1-0.3-0.1l-0.1,0.1h-0.1c0,0-0.1,0-0.3-0.1c-0.2-0.1-0.2-0.1-0.3-0.1
		c-0.4,0-0.7,0.2-1,0.6c-0.2,0.2-0.4,0.6-0.6,1l-1.3-9.2c1.1,2.4,2.3,4.3,3.8,5.6c1.8,1.6,3.8,2.3,6.1,2.3h0.3
		c1.5,0,2.8-0.5,3.8-1.4c1-1,1.5-2.2,1.5-3.7v0c0-1.3-0.4-2.5-1.3-3.5c-0.7-0.8-1.7-1.6-3-2.3l-3.4-2.1c-1.5-0.9-2.5-1.6-3.2-2.2
		c-1.1-0.9-1.9-1.8-2.4-2.7c-0.6-1.1-0.9-2.3-0.9-3.7c0-2.2,0.7-4.1,2.2-5.5s3.3-2.2,5.6-2.2c0.5,0,1,0,1.5,0.1s1,0.2,1.5,0.4
		l2.2,0.8l1.1,0.2c0.5,0,1-0.1,1.4-0.4c0.4-0.3,0.8-0.7,1.1-1.2l0.9,9.4c-0.7-1.6-1.4-2.9-2-3.9c-0.9-1.3-1.8-2.2-2.9-2.8
		c-1.2-0.7-2.6-1.1-4.1-1.1h-0.2c-1.2,0-2.3,0.4-3.3,1.2s-1.5,1.9-1.5,3.1c0,1.3,0.7,2.6,2.2,4c0.7,0.6,1.9,1.5,3.7,2.7l3.7,2.3
		c1.8,1.2,3.1,2.3,3.8,3.3C434.1,230.3,434.6,231.9,434.6,233.7z"/>
	<path class="st3" d="M462.8,228.4l-0.1,2.3h-11.3v-2.3H462.8z"/>
	<path class="st3" d="M506.4,233.9l-1.9,7.2h-23.9c1.8-0.4,2.9-1,3.4-1.9c0.4-0.6,0.5-1.9,0.5-3.7v-18c0-2-0.2-3.4-0.5-4
		c-0.5-0.9-1.6-1.6-3.5-2H504l0.3,6.2c-0.9-1.9-1.8-3.2-2.6-3.8c-0.9-0.6-2.3-0.9-4.4-0.9h-7.4c-0.4,0-0.6,0.1-0.8,0.2
		c-0.2,0.1-0.2,0.3-0.2,0.6V225h6.6c2,0,3.4-0.3,4.1-0.8s1.4-1.7,2.1-3.6v10.2c-0.6-1.8-1.3-3-2.1-3.5c-0.7-0.5-2.1-0.8-4-0.8h-6.7
		v10.6c0,1.1,0.2,1.9,0.7,2.2c0.4,0.3,1.2,0.4,2.3,0.4h3.9c2.7,0,4.8-0.4,6.1-1.1C503.2,237.9,504.7,236.3,506.4,233.9z"/>
	<path class="st3" d="M540.1,211.5c-1.7,0.4-2.9,1-3.5,1.9c-0.5,0.7-0.7,1.7-0.7,3.1v2.3V231c0,3.6-1,6.3-3,8.1s-4.8,2.7-8.4,2.7
		c-4.1,0-7.1-1.2-8.8-3.6c-1.5-2-2.2-5.2-2.2-9.5v-11c0-2.2-0.1-3.6-0.4-4.1c-0.5-1-1.6-1.7-3.6-2.2h12.3c-1.8,0.4-3,1-3.5,1.9
		c-0.4,0.7-0.6,1.9-0.6,3.7v0.7v10.9c0,2.4,0.1,4.1,0.4,5.4c0.4,1.8,1.1,3.2,2.1,4.2c1.2,1.1,3,1.7,5.3,1.7h0.2c2.9,0,5-0.8,6.5-2.3
		c1.4-1.5,2.2-3.7,2.2-6.6v-13.4c0-2.1-0.2-3.5-0.5-4.2c-0.5-1-1.7-1.6-3.6-2h9.8V211.5z"/>
	<path class="st3" d="M572.3,241.1h-7.6L554,227.4h-2.8v8.3c0,1.7,0.2,2.9,0.7,3.6c0.5,0.7,1.6,1.3,3.2,1.8h-11.9
		c1.6-0.4,2.7-1,3.2-1.8c0.4-0.7,0.6-1.9,0.6-3.7v-19.2c0-1.6-0.3-2.7-0.8-3.4s-1.5-1.2-3-1.6h9.8c2.5,0,4.5,0.1,6,0.3
		c2.3,0.4,4.1,1.1,5.3,2.1c1.5,1.3,2.3,3.1,2.3,5.4v0.2c0,2.2-0.8,3.8-2.3,5.1c-1.3,1-3.2,1.8-5.8,2.4l7.3,9.1
		c0.7,0.9,1.3,1.6,1.8,2.1c0.7,0.8,1.4,1.4,2.1,1.8C570.4,240.5,571.3,240.9,572.3,241.1z M562.1,219.1V219c0-2.2-0.8-3.8-2.4-4.8
		c-1.4-0.9-3.1-1.3-5.3-1.3h-0.6c-0.9,0-1.5,0.1-1.8,0.3c-0.4,0.3-0.7,1-0.7,2.1v10.6h1.2c1.8,0,3.2-0.2,4.4-0.5
		c1.6-0.4,2.8-1.1,3.7-2C561.6,222.3,562.1,220.9,562.1,219.1z"/>
	<path class="st3" d="M605.2,226.7c0,4.2-1.3,7.8-4,10.6c-2.7,2.9-6.2,4.4-10.4,4.4h-0.2c-4.3,0-7.8-1.5-10.5-4.4s-4.1-6.6-4.1-10.9
		v-0.1c0-4.3,1.3-7.8,4-10.7c2.8-3,6.3-4.5,10.5-4.5l0.2-0.1c4.3,0,7.8,1.5,10.5,4.6c2.6,2.9,3.9,6.6,3.9,10.9L605.2,226.7
		L605.2,226.7z M600.3,226.1v-0.8c0-3.5-0.7-6.4-2-8.7c-1.7-2.9-4.2-4.3-7.5-4.3c-2.5,0-4.5,0.8-6.1,2.3c-1.4,1.3-2.4,3.1-3,5.5
		c-0.5,1.9-0.8,4.1-0.8,6.4v1.5c0,3.3,0.7,6.1,2.2,8.4c1.7,2.7,4.3,4.1,7.6,4.1c2.4,0,4.4-0.8,6-2.4c1.3-1.4,2.3-3.2,2.9-5.6
		C600,230.5,600.3,228.4,600.3,226.1z"/>
	<path class="st3" d="M631.8,220c0,2.1-0.7,3.9-2,5.2c-1.1,1.1-2.6,1.9-4.6,2.4c-1.6,0.4-3.4,0.6-5.6,0.6h-3.1v6.9
		c0,2.1,0.2,3.5,0.6,4.1c0.5,0.9,1.8,1.6,3.7,1.9h-12.3c1.8-0.4,2.9-1.1,3.3-2c0.3-0.7,0.5-2,0.5-4v-18c0-2-0.2-3.2-0.5-3.8
		c-0.5-0.9-1.6-1.5-3.4-1.9h8.8c2.6,0,4.7,0.1,6.3,0.4c2.5,0.4,4.4,1.2,5.7,2.3C631,215.5,631.8,217.5,631.8,220L631.8,220z
		 M627.1,219.7v-0.3c0-2.4-0.9-4.1-2.6-5.2c-1.4-0.9-3.3-1.3-5.7-1.3h-0.3c-0.7,0-1.2,0.2-1.5,0.7c-0.2,0.3-0.3,0.8-0.3,1.4v1v10.6
		h3.1c2.3,0,4.1-0.6,5.4-1.7C626.4,223.8,627.1,222,627.1,219.7z"/>
	<path class="st3" d="M660.8,233.9l-1.9,7.2H635c1.8-0.4,2.9-1,3.4-1.9c0.4-0.6,0.5-1.9,0.5-3.7v-18c0-2-0.2-3.4-0.5-4
		c-0.5-0.9-1.6-1.6-3.5-2h23.4l0.3,6.2c-0.9-1.9-1.8-3.2-2.6-3.8c-0.9-0.6-2.3-0.9-4.4-0.9h-7.4c-0.4,0-0.6,0.1-0.8,0.2
		c-0.2,0.1-0.2,0.3-0.2,0.6V225h6.6c2,0,3.4-0.3,4.1-0.8c0.7-0.5,1.4-1.7,2.1-3.6v10.2c-0.6-1.8-1.3-3-2.1-3.5
		c-0.7-0.5-2.1-0.8-4-0.8h-6.7v10.6c0,1.1,0.2,1.9,0.7,2.2c0.4,0.3,1.2,0.4,2.3,0.4h3.9c2.7,0,4.8-0.4,6.1-1.1
		C657.6,237.9,659.1,236.3,660.8,233.9z"/>
	<path class="st3" d="M689,228.4l-0.1,2.3h-11.3v-2.3H689z"/>
	<path class="st3" d="M737.7,241.1h-10.9c0.7-0.1,1.3-0.2,1.8-0.5c0.7-0.4,1.1-0.9,1.1-1.6v-0.1c0-0.4-0.1-0.9-0.3-1.5
		c0-0.1-0.2-0.5-0.4-1.4l-2.1-4.5h-11.8l-1.3,3c-0.3,0.6-0.5,1.3-0.8,2c-0.3,0.9-0.5,1.6-0.5,2.1l-0.1,0.1c0,0.7,0.4,1.3,1.1,1.7
		c0.5,0.3,1.2,0.5,2,0.7H707c1.3-0.5,2.4-1.5,3.3-2.9c0.4-0.6,1-2,1.8-4l10.1-24.3l11.5,27.1c0.7,1.5,1.2,2.4,1.4,2.7
		C735.7,240.4,736.5,240.9,737.7,241.1z M726.4,229.9l-5.3-12.8l-5.3,12.8H726.4z"/>
	<path class="st3" d="M760.5,233.7c0,2.5-0.9,4.6-2.8,6c-1.7,1.4-3.9,2-6.5,2c-0.7,0-1.4-0.1-2-0.2c-0.6-0.1-1.2-0.3-1.8-0.5
		l-2.2-0.8c-0.1,0-0.2-0.1-0.3-0.2c-0.1-0.1-0.3-0.1-0.3-0.1l-0.1,0.1h-0.1c0,0-0.1,0-0.3-0.1s-0.2-0.1-0.3-0.1
		c-0.4,0-0.7,0.2-1,0.6c-0.2,0.2-0.4,0.6-0.6,1l-1.3-9.2c1.1,2.4,2.3,4.3,3.8,5.6c1.8,1.6,3.8,2.3,6.1,2.3h0.3
		c1.5,0,2.8-0.5,3.8-1.4c1-1,1.5-2.2,1.5-3.7v0c0-1.3-0.4-2.5-1.3-3.5c-0.7-0.8-1.7-1.6-3-2.3l-3.4-2.1c-1.5-0.9-2.5-1.6-3.2-2.2
		c-1.1-0.9-1.9-1.8-2.4-2.7c-0.6-1.1-0.9-2.3-0.9-3.7c0-2.2,0.7-4.1,2.2-5.5s3.3-2.2,5.6-2.2c0.5,0,1,0,1.5,0.1s1,0.2,1.5,0.4
		l2.2,0.8l1.1,0.2c0.5,0,1-0.1,1.4-0.4c0.4-0.3,0.8-0.7,1.1-1.2l0.9,9.4c-0.7-1.6-1.4-2.9-2-3.9c-0.9-1.3-1.8-2.2-2.9-2.8
		c-1.2-0.7-2.6-1.1-4.1-1.1h-0.2c-1.2,0-2.3,0.4-3.3,1.2s-1.5,1.9-1.5,3.1c0,1.3,0.7,2.6,2.2,4c0.7,0.6,1.9,1.5,3.7,2.7l3.7,2.3
		c1.8,1.2,3.1,2.3,3.8,3.3C760,230.3,760.5,231.9,760.5,233.7z"/>
	<path class="st3" d="M777.2,241.1h-13.1c1.9-0.3,3.2-0.9,3.7-1.8c0.4-0.7,0.6-1.9,0.6-3.8v-18c0-2.2-0.2-3.6-0.6-4.2
		c-0.5-0.9-1.8-1.5-3.8-1.8h13.1c-2,0.4-3.3,1-3.8,1.9c-0.5,0.7-0.7,2.1-0.7,4.2v17.3l-0.1,0.8c0,1.9,0.2,3.2,0.7,3.8
		C773.9,240.3,775.2,240.9,777.2,241.1z"/>
	<path class="st3" d="M811.5,241.1h-10.9c0.7-0.1,1.3-0.2,1.8-0.5c0.7-0.4,1.1-0.9,1.1-1.6v-0.1c0-0.4-0.1-0.9-0.3-1.5
		c0-0.1-0.2-0.5-0.4-1.4l-2.1-4.5H789l-1.3,3c-0.3,0.6-0.5,1.3-0.8,2c-0.3,0.9-0.5,1.6-0.5,2.1l-0.1,0.1c0,0.7,0.4,1.3,1.1,1.7
		c0.5,0.3,1.2,0.5,2,0.7h-8.6c1.3-0.5,2.4-1.5,3.3-2.9c0.4-0.6,1-2,1.8-4l10.1-24.3l11.5,27.1c0.7,1.5,1.2,2.4,1.4,2.7
		C809.6,240.4,810.4,240.9,811.5,241.1z M800.2,229.9l-5.3-12.8l-5.3,12.8H800.2z"/>
</g>
<g>
	<path class="st3" d="M387.6,282.6H380l-10.7-13.7h-2.8v8.3c0,1.7,0.2,2.9,0.7,3.6s1.6,1.3,3.2,1.8h-11.9c1.6-0.4,2.7-1,3.2-1.8
		c0.4-0.7,0.6-1.9,0.6-3.7v-19.2c0-1.6-0.3-2.7-0.8-3.4s-1.5-1.2-3-1.6h9.8c2.5,0,4.5,0.1,6,0.3c2.3,0.4,4.1,1.1,5.3,2.1
		c1.5,1.3,2.3,3.1,2.3,5.4v0.2c0,2.2-0.8,3.8-2.3,5.1c-1.3,1-3.2,1.8-5.8,2.4l7.3,9.1c0.7,0.9,1.3,1.6,1.8,2.1
		c0.7,0.8,1.4,1.4,2.1,1.8C385.7,282,386.6,282.4,387.6,282.6z M377.4,260.6v-0.1c0-2.2-0.8-3.8-2.4-4.8c-1.4-0.9-3.1-1.3-5.3-1.3
		h-0.6c-0.9,0-1.5,0.1-1.8,0.3c-0.4,0.3-0.7,1-0.7,2.1v10.6h1.2c1.8,0,3.2-0.2,4.4-0.5c1.6-0.4,2.8-1.1,3.7-2
		C376.8,263.8,377.4,262.4,377.4,260.6z"/>
	<path class="st3" d="M420,282.6h-10.9c0.7-0.1,1.3-0.2,1.8-0.5c0.7-0.4,1.1-0.9,1.1-1.6v-0.1c0-0.4-0.1-0.9-0.3-1.5
		c0-0.1-0.2-0.5-0.4-1.4l-2.1-4.5h-11.8l-1.3,3c-0.3,0.6-0.5,1.3-0.8,2c-0.3,0.9-0.5,1.6-0.5,2.1l-0.1,0.1c0,0.7,0.4,1.3,1.1,1.7
		c0.5,0.3,1.2,0.5,2,0.7h-8.5c1.3-0.5,2.4-1.5,3.3-2.9c0.4-0.6,1-2,1.8-4l10.1-24.3l11.5,27.1c0.7,1.5,1.2,2.4,1.4,2.7
		C418.1,281.8,418.9,282.3,420,282.6z M408.7,271.4l-5.3-12.8l-5.3,12.8H408.7z"/>
	<path class="st3" d="M434.9,282.6h-13.1c1.9-0.3,3.2-0.9,3.7-1.8c0.4-0.7,0.6-1.9,0.6-3.8v-18c0-2.2-0.2-3.6-0.6-4.2
		c-0.5-0.9-1.8-1.5-3.8-1.8h13.1c-2,0.4-3.3,1-3.8,1.9c-0.4,0.7-0.7,2.1-0.7,4.2v17.3l-0.1,0.8c0,1.9,0.2,3.2,0.7,3.8
		C431.6,281.8,432.9,282.3,434.9,282.6z"/>
	<path class="st3" d="M462.6,275.1l-2.1,7.5h-23.6c1.8-0.4,3-1.1,3.5-2c0.3-0.6,0.5-2,0.5-4v-18.1c0-1.9-0.2-3.1-0.5-3.8
		c-0.5-0.9-1.5-1.5-3.2-2h12.1c-1.8,0.4-3,1-3.6,2c-0.4,0.7-0.6,1.9-0.6,3.7v0.7v18.5c0,1.4,0.5,2.4,1.5,2.9
		c0.7,0.4,1.7,0.6,3.1,0.6h2.1c2.7,0,4.7-0.4,6.2-1.3C459.5,279,461,277.5,462.6,275.1z"/>
	<path class="st3" d="M502,275.1l-2.1,7.5h-23.6c1.8-0.4,3-1.1,3.5-2c0.3-0.6,0.5-2,0.5-4v-18.1c0-1.9-0.2-3.1-0.5-3.8
		c-0.5-0.9-1.5-1.5-3.2-2h12.1c-1.8,0.4-3,1-3.6,2c-0.4,0.7-0.6,1.9-0.6,3.7v0.7v18.5c0,1.4,0.5,2.4,1.5,2.9
		c0.7,0.4,1.7,0.6,3.1,0.6h2.1c2.7,0,4.7-0.4,6.2-1.3C498.8,279,500.4,277.5,502,275.1z"/>
	<path class="st3" d="M533.2,268.2c0,4.2-1.3,7.8-4,10.6c-2.7,2.9-6.2,4.4-10.4,4.4h-0.2c-4.3,0-7.8-1.5-10.5-4.4s-4.1-6.6-4.1-10.9
		v-0.1c0-4.3,1.3-7.8,4-10.7c2.8-3,6.3-4.5,10.5-4.5l0.2-0.1c4.3,0,7.8,1.5,10.5,4.6c2.6,2.9,3.9,6.6,3.9,10.9L533.2,268.2
		L533.2,268.2z M528.4,267.5v-0.8c0-3.5-0.7-6.4-2-8.7c-1.7-2.9-4.2-4.3-7.5-4.3c-2.5,0-4.5,0.8-6.1,2.3c-1.4,1.3-2.4,3.1-3,5.5
		c-0.5,1.9-0.8,4.1-0.8,6.4v1.5c0,3.3,0.7,6.1,2.2,8.4c1.7,2.7,4.3,4.1,7.6,4.1c2.4,0,4.4-0.8,6-2.4c1.3-1.4,2.3-3.2,2.9-5.6
		C528.1,272,528.4,269.8,528.4,267.5z"/>
	<path class="st3" d="M565.1,266.9c-1.2,0.2-2,0.7-2.4,1.5c-0.4,0.6-0.5,1.6-0.5,2.8v0.7v8.5c-2.1,1-3.8,1.7-5.3,2.1
		c-1.8,0.5-3.7,0.7-5.8,0.7c-4.6,0-8.4-1.3-11.4-4c-3-2.8-4.5-6.5-4.5-11.1V268c0-4.4,1.3-8,4-11c2.8-3.1,6.3-4.6,10.7-4.6h0.5
		c1.1,0,2.2,0.1,3.3,0.3c1.1,0.2,2.2,0.5,3.3,0.9c0.3,0.1,0.5,0.2,0.6,0.2c0.4,0.1,0.8,0.1,1.1,0.1l0.1,0.1c0.5,0,0.9-0.2,1.4-0.5
		s0.9-0.7,1.2-1.1l0.5,9.3c-1.2-2.5-2.7-4.4-4.4-5.6c-1.9-1.4-4.1-2.2-6.7-2.2c-3.5,0-6.3,1.5-8.3,4.5c-1.7,2.6-2.5,5.7-2.5,9.3
		c0.1,0.1,0.1,0.2,0.1,0.2c0,3.9,0.9,7.1,2.7,9.6c2.1,2.8,5.1,4.2,9,4.2h0.1c1.1,0,2.2-0.2,3.1-0.5c0.7-0.2,1.7-0.7,2.9-1.4v-8.6
		c0-1.1-0.3-2.1-0.8-2.8c-0.6-0.8-1.6-1.3-2.9-1.6h10.9V266.9z"/>
	<path class="st3" d="M580.3,282.6h-13.1c1.9-0.3,3.2-0.9,3.7-1.8c0.4-0.7,0.6-1.9,0.6-3.8v-18c0-2.2-0.2-3.6-0.6-4.2
		c-0.5-0.9-1.8-1.5-3.8-1.8h13.2c-2,0.4-3.3,1-3.8,1.9c-0.5,0.7-0.7,2.1-0.7,4.2v17.3l-0.1,0.8c0,1.9,0.2,3.2,0.7,3.8
		C576.9,281.8,578.3,282.3,580.3,282.6z"/>
	<path class="st3" d="M601.9,275.2c0,2.5-0.9,4.6-2.8,6c-1.7,1.4-3.9,2-6.5,2c-0.7,0-1.4-0.1-2-0.2s-1.2-0.3-1.8-0.5l-2.2-0.8
		c-0.1,0-0.2-0.1-0.3-0.2s-0.3-0.1-0.3-0.1l-0.1,0.1h-0.1c0,0-0.1,0-0.3-0.1s-0.2-0.1-0.3-0.1c-0.4,0-0.7,0.2-1,0.6
		c-0.2,0.2-0.4,0.6-0.6,1l-1.3-9.2c1.1,2.4,2.3,4.3,3.8,5.6c1.8,1.6,3.8,2.3,6.1,2.3h0.3c1.5,0,2.8-0.5,3.8-1.4c1-1,1.5-2.2,1.5-3.7
		v-0.2c0-1.3-0.4-2.5-1.3-3.5c-0.7-0.8-1.7-1.6-3-2.3l-3.4-2.1c-1.5-0.9-2.5-1.6-3.2-2.2c-1.1-0.9-1.9-1.8-2.4-2.7
		c-0.6-1.1-0.9-2.3-0.9-3.7c0-2.2,0.7-4.1,2.2-5.5s3.3-2.2,5.6-2.2c0.5,0,1,0,1.5,0.1s1,0.2,1.5,0.4l2.2,0.8l1.1,0.2
		c0.5,0,1-0.1,1.4-0.4c0.4-0.3,0.8-0.7,1.1-1.2l0.9,9.4c-0.7-1.6-1.4-2.9-2-3.9c-0.9-1.3-1.8-2.2-2.9-2.8c-1.2-0.7-2.6-1.1-4.1-1.1
		h-0.2c-1.2,0-2.3,0.4-3.3,1.2s-1.5,1.9-1.5,3.1c0,1.3,0.7,2.6,2.2,4c0.7,0.6,1.9,1.5,3.7,2.7l3.7,2.3c1.8,1.2,3.1,2.3,3.8,3.3
		C601.5,271.8,601.9,273.3,601.9,275.2z"/>
	<path class="st3" d="M628.9,260.3c-0.8-2.2-1.7-3.7-3-4.5c-1.2-0.9-2.9-1.3-5.1-1.3h-2.6v22.3c0,2,0.2,3.4,0.7,4
		c0.5,0.9,1.8,1.4,3.6,1.8h-13.3c2-0.3,3.3-0.8,4-1.7c0.5-0.7,0.8-2.1,0.8-4.1v-22.3h-2.4c-2.6,0-4.4,0.4-5.4,1.1s-1.9,2.3-2.7,4.7
		l0.3-7.3h24.8L628.9,260.3z"/>
	<path class="st3" d="M643.8,282.6h-13.1c1.9-0.3,3.2-0.9,3.7-1.8c0.4-0.7,0.6-1.9,0.6-3.8v-18c0-2.2-0.2-3.6-0.6-4.2
		c-0.5-0.9-1.8-1.5-3.8-1.8h13.1c-2,0.4-3.3,1-3.8,1.9c-0.5,0.7-0.7,2.1-0.7,4.2v17.3l-0.1,0.8c0,1.9,0.2,3.2,0.7,3.8
		C640.4,281.8,641.7,282.3,643.8,282.6z"/>
	<path class="st3" d="M674.3,275.5c-1.8,2.8-3.9,4.8-6.2,6.1c-2.1,1.1-4.6,1.7-7.5,1.7h-0.3c-4.4,0-7.9-1.4-10.7-4.3
		c-2.7-2.8-4.1-6.5-4.1-10.8v-0.3c0-4.4,1.4-8.1,4.1-11.1c2.8-3,6.4-4.5,10.8-4.5h0.5c0.9,0,2,0.1,3.1,0.3s2.1,0.5,2.9,0.8
		c0.2,0.1,0.4,0.2,0.8,0.2c0.3,0.1,0.6,0.1,0.8,0.2l0.4,0.1c0.4,0,0.9-0.2,1.4-0.5s0.9-0.7,1.2-1.1l0.8,10.4c-1.5-3-3-5.1-4.5-6.4
		c-1.8-1.6-4.1-2.4-6.8-2.4c-3.4,0-6.2,1.5-8.1,4.4c-1.7,2.5-2.6,5.6-2.6,9.1l0.1,0.4c0,3.8,0.9,7,2.6,9.4c2,2.9,4.9,4.3,8.8,4.3
		h0.2c2.2,0,4.3-0.5,6.2-1.4C669.6,279.2,671.7,277.7,674.3,275.5z"/>
	<path class="st3" d="M695.4,275.2c0,2.5-0.9,4.6-2.8,6c-1.7,1.4-3.9,2-6.5,2c-0.7,0-1.4-0.1-2-0.2s-1.2-0.3-1.8-0.5l-2.2-0.8
		c-0.1,0-0.2-0.1-0.3-0.2s-0.3-0.1-0.3-0.1l-0.1,0.1h-0.1c0,0-0.1,0-0.3-0.1s-0.2-0.1-0.3-0.1c-0.4,0-0.7,0.2-1,0.6
		c-0.2,0.2-0.4,0.6-0.6,1l-1.3-9.2c1.1,2.4,2.3,4.3,3.8,5.6c1.8,1.6,3.8,2.3,6.1,2.3h0.3c1.5,0,2.8-0.5,3.8-1.4c1-1,1.5-2.2,1.5-3.7
		v-0.2c0-1.3-0.4-2.5-1.3-3.5c-0.7-0.8-1.7-1.6-3-2.3l-3.4-2.1c-1.5-0.9-2.5-1.6-3.2-2.2c-1.1-0.9-1.9-1.8-2.4-2.7
		c-0.6-1.1-0.9-2.3-0.9-3.7c0-2.2,0.7-4.1,2.2-5.5s3.3-2.2,5.6-2.2c0.5,0,1,0,1.5,0.1s1,0.2,1.5,0.4l2.2,0.8l1.1,0.2
		c0.5,0,1-0.1,1.4-0.4c0.4-0.3,0.8-0.7,1.1-1.2l0.9,9.4c-0.7-1.6-1.4-2.9-2-3.9c-0.9-1.3-1.8-2.2-2.9-2.8c-1.2-0.7-2.6-1.1-4.1-1.1
		h-0.3c-1.2,0-2.3,0.4-3.3,1.2s-1.5,1.9-1.5,3.1c0,1.3,0.7,2.6,2.2,4c0.7,0.6,1.9,1.5,3.7,2.7l3.7,2.3c1.8,1.2,3.1,2.3,3.8,3.3
		C695,271.8,695.4,273.3,695.4,275.2z"/>
</g>
</svg>
